<svg width="163" height="187" viewBox="0 0 163 187" fill="none" xmlns="http://www.w3.org/2000/svg">
<rect y="30.7109" width="15.1168" height="133.028" fill="#CECECE"/>
<rect x="142" y="24" width="15" height="66" rx="7.5" fill="#CECECE"/>
<rect x="105.818" y="57.9211" width="15.1168" height="63.4906" rx="7.5584" transform="rotate(90 105.818 57.9211)" fill="white"/>
<rect x="81.6307" y="94.2015" width="15.1168" height="39.3037" rx="7.5584" transform="rotate(90 81.6307 94.2015)" fill="white"/>
<rect x="130.005" y="165.828" width="15.1168" height="30.7078" rx="7.5584" transform="rotate(-47.5797 130.005 165.828)" fill="white"/>
<rect x="123.958" y="0.477295" width="15.1168" height="90.7008" transform="rotate(90 123.958 0.477295)" fill="#CECECE"/>
<path fill-rule="evenodd" clip-rule="evenodd" d="M93.76 15.5941H120.934C137.865 15.5941 142.098 27.6875 142.098 33.7343V63.932C151.227 57.666 157.215 47.1552 157.215 35.2459C157.215 16.0438 141.648 0.477295 122.446 0.477295C110.537 0.477295 100.026 6.46497 93.76 15.5941Z" fill="#CECECE"/>
<path fill-rule="evenodd" clip-rule="evenodd" d="M63.4548 15.5941H36.2803C19.3495 15.5941 15.1168 27.6875 15.1168 33.7343V63.932C5.98769 57.666 1.89203e-05 47.1552 1.89203e-05 35.2459C1.89203e-05 16.0438 15.5665 0.477295 34.7687 0.477295C46.6779 0.477295 57.1887 6.46497 63.4548 15.5941Z" fill="#CECECE"/>
<path d="M0 160.715C0.503894 167.77 4.53504 180.367 16.6285 180.367C30.2336 180.367 28.7219 175.832 33.257 174.32C36.885 173.111 43.8387 174.824 46.8621 175.832L60.4672 181.879C62.4828 182.887 67.1186 184.6 69.5373 183.39C72.5607 181.879 72.5607 178.855 72.5607 175.832C72.5607 173.413 65.5062 169.785 61.9789 168.274L45.3504 160.715C42.3271 159.707 35.3733 158.297 31.7453 160.715L22.6752 166.762C21.4595 167.509 19.6718 168.656 18.1402 168.274C16.4695 167.857 15.1035 165.848 15.1168 165.25C15.1424 164.105 15.1168 161.219 15.1168 160.715H0Z" fill="#CECECE"/>
<path fill-rule="evenodd" clip-rule="evenodd" d="M117.911 178.856C136.278 178.856 151.168 163.966 151.168 145.599C151.168 127.231 136.278 112.342 117.911 112.342C99.5438 112.342 84.6541 127.231 84.6541 145.599C84.6541 163.966 99.5438 178.856 117.911 178.856ZM117.911 163.739C127.93 163.739 136.051 155.617 136.051 145.599C136.051 135.58 127.93 127.459 117.911 127.459C107.893 127.459 99.7709 135.58 99.7709 145.599C99.7709 155.617 107.893 163.739 117.911 163.739Z" fill="white"/>
</svg>
